<svg width="180" height="60" xmlns="http://www.w3.org/2000/svg">

 <g>
  <title>background</title>
  <rect fill="none" id="canvas_background" height="62" width="182" y="-1" x="-1"/>
 </g>
 <g>
  <title>Layer 1</title>
  <path id="svg_1" d="m149.899994,5l-0.199997,0l-19.699997,2.1l0,36.199999l19.699997,11.700001l19.699997,-11.700001l0,-36.199999l-19.499985,-2.1l-0.000015,0zm17,36.799999l-17.199997,10.200001l-17.199997,-10.200001l0,-14.799999l17.100006,10.200001l0,1.799999l-11.700012,-7l0,1.799999l11.800003,7.099998l0,1.900002l-11.800003,-7l0,1.799999l11.800003,7l11.900009,-7.099998l0,-7.600002l5.299988,-3.200001l0,15.100002zm-0.099991,-17l-4.699997,2.799999l-2.200012,1.299999l-10.299988,-6.099998l0,1.799999l8.800003,5.299999l-0.100006,0l-0.199997,0.100002l-1.300003,0.699997l-7.300003,-4.299995l0,1.799995l5.800003,3.400002l-1.400009,0.900002l-4.299988,-2.600002l0,1.799999l2.899994,1.700001l-2.899994,1.700001l-17,-10.099998l17,-10.200001l17.199997,10zm0.099991,-1.799999l-17.299988,-10.200001l-17.100006,10.200001l0,-13.600002l17.199997,-1.799999l17.200012,1.799999l0,13.600002l-0.000015,0z" fill="#b2b2b2"/>
  <path style="vector-effect: non-scaling-stroke;" id="svg_2" d="m30.200001,5l-0.199999,0l-19.700002,2.1l0,36.199999l19.700002,11.700001l19.699999,-11.700001l0,-36.199999l-19.499998,-2.1l-0.000002,0zm17,36.799999l-17.199999,10.200001l-17.200002,-10.200001l0,-14.800001l17.099999,10.200003l0,1.799999l-11.699999,-7.000002l0,1.800001l11.800001,7.099998l0,1.900002l-11.800001,-7l0,1.799999l11.800001,7l11.9,-7.099998l0,-7.6l5.299999,-3.200001l0,15.1zm-0.099998,-17l-4.700001,2.799999l-2.200001,1.300001l-10.299999,-6.1l0,1.799999l8.799999,5.300001l-0.099998,0l-0.200001,0.099998l-1.299999,0.700001l-7.300001,-4.299999l0,1.799999l5.800001,3.4l-1.400002,0.900002l-4.299999,-2.6l0,1.799999l2.900002,1.699999l-2.900002,1.700001l-16.999999,-10.1l16.999999,-10.199999l17.200001,10zm0.099998,-1.800001l-17.299999,-10.199999l-17.099999,10.199999l0,-13.599999l17.200002,-1.8l17.200001,1.8l0,13.599999l-0.000004,0z" fill="#000"/>
  <path id="svg_3" d="m89.900002,5l-0.199997,0l-19.700005,2.1l0,36.199999l19.700005,11.700001l19.699989,-11.700001l0,-36.199999l-19.499985,-2.1l-0.000008,0zm16.999992,36.799999l-17.199989,10.200001l-17.200005,-10.200001l0,-14.799999l17.099998,10.200001l0,1.799999l-11.699997,-7l0,1.799999l11.800003,7.099998l0,1.900002l-11.800003,-7l0,1.799999l11.800003,7l11.900002,-7.099998l0,-7.600002l5.299988,-3.200001l0,15.100002zm-0.099991,-17l-4.699997,2.799999l-2.200005,1.299999l-10.299995,-6.099998l0,1.799999l8.799995,5.299999l-0.099998,0l-0.199997,0.100002l-1.300003,0.699997l-7.300003,-4.299995l0,1.799995l5.800003,3.400002l-1.400002,0.900002l-4.299995,-2.600002l0,1.799999l2.899994,1.700001l-2.899994,1.700001l-17,-10.099998l17,-10.200001l17.199997,10zm0.099991,-1.799999l-17.299988,-10.200001l-17.100006,10.200001l0,-13.600002l17.200005,-1.8l17.200005,1.8l0,13.600002l-0.000015,0z" fill="#81b3d2"/>
 </g>
</svg>