<svg width="36" height="68" xmlns="http://www.w3.org/2000/svg">
 <style type="text/css">
  <![CDATA[
      .icon-like { fill: #b2b2b2; }
      
      ]]>
 </style>

 <g>
  <title>background</title>
  <rect x="-1" y="-1" width="38" height="70" id="canvas_background" fill="none"/>
 </g>
 <g>
  <title>Layer 1</title>
  <g id="Page-1">
   <g id="Core" class="icon-like">
    <g id="thumb-up">
     <path fill="white" id="Shape" d="m12.382996,44.645996l-0.636992,2.929016l-0.527008,2.424988l2.481018,0l6.199983,0l0,2c0,0.018005 0,0.036987 0.001007,0.058014l-2.901001,6.941986l-9.000001,0l0,-9.971008l0.014009,-0.014984l4.368989,-4.368011m-10.382998,6.354004l0,8l0,-8m11.200013,-10l-6.600007,6.600006c-0.399994,0.299988 -0.600006,0.799988 -0.600006,1.399994l0,10c0,1.100006 0.899994,2 2,2l9.000001,0c0.799988,0 1.5,-0.5 1.799988,-1.200016l3,-7.099972c0.100006,-0.200012 0.100006,-0.5 0.100006,-0.700012l0,-2l0.100006,0c0,-1.100006 -0.899996,-2 -2,-2l-6.299988,0l1,-4.600006l0,-0.299988c0,-0.399994 -0.200006,-0.800018 -0.40002,-1.100006l-1.099981,-1l0,0l0.000001,0zm-9.200013,8l-4,0l0,12l4,0l0,-12l0,0zm18.000001,1c0,0.03299 0,0.044006 0,0.044006l0,-0.044006l0,0z"/>
    </g>
   </g>
  </g>
  <g id="svg_4">
   <g id="svg_3" class="icon-like">
    <g id="svg_2">
     <path fill="#a9a9a9" id="svg_1" d="m12.382996,10.645995l-0.636992,2.929016l-0.527008,2.424988l2.481018,0l6.199984,0l0,2.000001c0,0.018005 0,0.036987 0.001007,0.058014l-2.901001,6.941984l-9.000002,0l0,-9.971007l0.014009,-0.014984l4.368989,-4.368011m-10.383,6.354004l0,8l0,-8m11.200015,-10l-6.600007,6.600006c-0.399996,0.299988 -0.600007,0.799988 -0.600007,1.399994l0,10c0,1.100004 0.899993,2 2,2l9.000001,0c0.799988,0 1.5,-0.5 1.799988,-1.200012l3,-7.099976c0.100006,-0.200012 0.100006,-0.5 0.100006,-0.700012l0,-2l0.100006,0c0,-1.100006 -0.899998,-2 -2,-2l-6.299987,0l1,-4.600006l0,-0.299988c0,-0.399994 -0.200012,-0.800018 -0.400024,-1.100006l-1.099977,-1l0,0l0.000001,0zm-9.200015,8l-4,0l0,12l4,0l0,-12l0,0zm18.000004,1c0,0.03299 0,0.044006 0,0.044006l0,-0.044006l0,0z"/>
    </g>
   </g>
  </g>
 </g>
</svg>