<svg width="112" height="56" xmlns="http://www.w3.org/2000/svg">

 <g>
  <title>background</title>
  <rect fill="none" id="canvas_background" height="58" width="114" y="-1" x="-1"/>
 </g>
 <g>
  <title>Layer 1</title>
  <path opacity="0.3" id="svg_5" d="m95.65805,20.27003c-0.36003,-0.36004 -0.94849,-0.36004 -1.30852,0l-12.89377,12.89375l-6.73402,-6.73403c-0.36004,-0.36004 -0.94849,-0.36004 -1.30852,0l-1.1432,1.14318c-0.36004,0.36004 -0.36004,0.94849 0,1.30745l8.52441,8.52441c0.18165,0.18164 0.42203,0.26975 0.66132,0.26758c0.2393,0.00217 0.47859,-0.08594 0.66133,-0.26758l14.68414,-14.68414l-1.14319,-2.45061z"/>
  <path id="svg_6" d="m39.25743,20.27003c-0.36003,-0.36004 -0.94849,-0.36004 -1.30852,0l-12.89376,12.89375l-6.73403,-6.73403c-0.36004,-0.36004 -0.94849,-0.36004 -1.30852,0l-1.14319,1.14318c-0.36004,0.36004 -0.36004,0.94849 0,1.30744l8.52441,8.52441c0.18165,0.18165 0.42203,0.26975 0.66133,0.26758c0.2393,0.00217 0.47859,-0.08593 0.66133,-0.26758l14.68414,-14.68414l-1.14319,-2.45061z"/>
 </g>
</svg>