<svg width="96" height="80" xmlns="http://www.w3.org/2000/svg">
 <!-- Created with Method Draw - http://github.com/duopixel/Method-Draw/ -->

 <g>
  <title>background</title>
  <rect fill="none" id="canvas_background" height="82" width="98" y="-1" x="-1"/>
 </g>
 <g>
  <title>replay</title>
  <path d="m8,64l0,-4l-5,5l5,5l0,-4c3.315001,0 6,2.685997 6,6s-2.684999,6 -6,6s-6,-2.686005 -6,-6l-2,0c0,4.419998 3.58,8 8,8s8,-3.580002 8,-8s-3.580002,-8 -8,-8z" id="svg_1" fill="#fff"/>
  <path d="m8,4l0,-4l-5,5l5,5l0,-4c3.315,0 6,2.686 6,6s-2.685,6 -6,6s-6,-2.686 -6,-6l-2,0c0,4.42 3.58,8 8,8s8,-3.58 8,-8s-3.58,-8 -8,-8z" id="svg_2" fill="#5c6870"/>
  <path d="m8,24l0,-4l-5,5l5,5l0,-4c3.315001,0 6,2.685999 6,6s-2.684999,6 -6,6s-6,-2.686001 -6,-6l-2,0c0,4.419998 3.58,8 8,8s8,-3.580002 8,-8s-3.580002,-8 -8,-8z" id="svg_3" fill="#333"/>
  <path d="m8,44l0,-4l-5,5l5,5l0,-4c3.315001,0 6,2.685997 6,6s-2.684999,6 -6,6s-6,-2.686001 -6,-6l-2,0c0,4.419998 3.58,8 8,8s8,-3.580002 8,-8s-3.580002,-8 -8,-8z" id="svg_4" fill="#333" opacity="0.3"/>
 </g>
 <g>
  <title>subtitles</title>
  <path fill="#5c6870" d="m61,0l-26,0c-1.650002,0 -3,1.35 -3,3l0,14c0,1.65 1.349998,3 3,3l26,0c1.650002,0 3,-1.35 3,-3l0,-14c0,-1.65 -1.349998,-3 -3,-3zm-14.597,15.854c-0.544998,0.108 -1.104,0.164 -1.678001,0.164c-0.693996,0 -1.353996,-0.106997 -1.975998,-0.323c-0.623001,-0.214 -1.172001,-0.561996 -1.646,-1.040998s-0.852001,-1.103004 -1.132999,-1.868c-0.280003,-0.766 -0.419003,-1.695004 -0.419003,-2.786c0,-1.134 0.157001,-2.085 0.471001,-2.851c0.315002,-0.768 0.723,-1.384 1.224003,-1.854c0.501999,-0.468 1.061996,-0.804 1.678997,-1.008c0.616001,-0.204 1.233002,-0.307 1.852001,-0.307c0.66,0 1.220001,0.045 1.678001,0.134c0.456997,0.087 0.834999,0.192 1.132999,0.313l-0.448002,1.92c-0.254002,-0.121 -0.555,-0.209 -0.902,-0.265c-0.347,-0.055 -0.767998,-0.082 -1.264999,-0.082c-0.915001,0 -1.648998,0.325 -2.206001,0.977c-0.557999,0.651 -0.835999,1.663 -0.835999,3.031c0,0.598 0.067001,1.141994 0.199001,1.632c0.131996,0.493 0.333996,0.913 0.602997,1.259995c0.271,0.349 0.607002,0.619 1.010002,0.812c0.402,0.193 0.867001,0.29 1.396,0.29c0.495998,0 0.915001,-0.049 1.257,-0.148c0.341999,-0.099 0.639,-0.227 0.892998,-0.38l0.463001,1.841c-0.354,0.249002 -0.802998,0.43 -1.348999,0.539001l0,-0.000001l0,0.000001l0,0.000001l0,0.000001zm8.697998,0c-0.544998,0.108 -1.105,0.164 -1.677998,0.164c-0.694,0 -1.354,-0.106997 -1.976002,-0.323c-0.623001,-0.214 -1.171997,-0.561996 -1.645996,-1.040998s-0.852001,-1.103004 -1.133003,-1.868c-0.280998,-0.767 -0.420998,-1.695004 -0.420998,-2.786c0,-1.134 0.156998,-2.085 0.471001,-2.851c0.313995,-0.768 0.723,-1.384 1.223,-1.854c0.501999,-0.468 1.061996,-0.804 1.679996,-1.008c0.616001,-0.204 1.233002,-0.307 1.851002,-0.307c0.660999,0 1.221001,0.045 1.678001,0.134c0.458,0.087 0.835999,0.192 1.132999,0.313l-0.446003,1.918c-0.252998,-0.121 -0.553997,-0.209 -0.900997,-0.265c-0.348003,-0.053 -0.77,-0.08 -1.266003,-0.08c-0.915001,0 -1.648998,0.325 -2.205997,0.977c-0.557999,0.651 -0.836002,1.663 -0.836002,3.031c0,0.598 0.067001,1.141994 0.199001,1.632c0.132,0.493 0.334,0.913 0.603001,1.259995c0.271,0.349 0.605999,0.619 1.008999,0.812c0.402,0.193 0.868,0.29 1.396,0.29c0.497002,0 0.915001,-0.049 1.257,-0.148c0.341999,-0.099 0.640003,-0.227 0.894001,-0.38l0.462997,1.841c-0.352997,0.249002 -0.802998,0.43 -1.348,0.539001l0,-0.000001l0,0.000001l0,0.000001l0,0.000001z" id="svg_5"/>
  <path fill="#fff" d="m61,60l-26,0c-1.650002,0 -3,1.350002 -3,3l0,14c0,1.650002 1.349998,3 3,3l26,0c1.650002,0 3,-1.349998 3,-3l0,-14c0,-1.649998 -1.349998,-3 -3,-3zm-14.597,15.854004c-0.544998,0.107994 -1.104004,0.163994 -1.678001,0.163994c-0.693993,0 -1.353996,-0.106995 -1.975998,-0.322998c-0.623001,-0.213997 -1.172001,-0.562004 -1.646,-1.040993s-0.852001,-1.103012 -1.132999,-1.868011c-0.280003,-0.765991 -0.419003,-1.694992 -0.419003,-2.785995c0,-1.134003 0.157001,-2.084999 0.471001,-2.850998c0.315002,-0.768005 0.723,-1.384003 1.224003,-1.853996c0.501999,-0.468002 1.061996,-0.804008 1.678997,-1.008003c0.616001,-0.204002 1.233006,-0.306999 1.852001,-0.306999c0.659996,0 1.220001,0.044998 1.678001,0.133995c0.457001,0.087006 0.834999,0.192009 1.132996,0.313004l-0.447998,1.919998c-0.254005,-0.121002 -0.555,-0.209 -0.902,-0.264999c-0.347,-0.054993 -0.767998,-0.081993 -1.264999,-0.081993c-0.915001,0 -1.648998,0.324997 -2.206001,0.976997c-0.557999,0.651001 -0.835999,1.662994 -0.835999,3.030998c0,0.598 0.067001,1.141998 0.199001,1.631996c0.131996,0.492996 0.333996,0.913002 0.602997,1.259995c0.271,0.349007 0.607002,0.619003 1.010002,0.812004c0.401997,0.193001 0.867001,0.290001 1.396,0.290001c0.495995,0 0.915001,-0.048996 1.256996,-0.147995c0.342003,-0.098999 0.639008,-0.227005 0.893005,-0.380005l0.462997,1.841003c-0.354004,0.249001 -0.802994,0.429993 -1.348999,0.539001l0,0zm8.697998,0c-0.544998,0.107994 -1.105003,0.163994 -1.677994,0.163994c-0.694,0 -1.354004,-0.106995 -1.976006,-0.322998c-0.623001,-0.213997 -1.171997,-0.562004 -1.645996,-1.040993s-0.851997,-1.103012 -1.133003,-1.868011c-0.280998,-0.766991 -0.420998,-1.694992 -0.420998,-2.785995c0,-1.134003 0.156998,-2.084999 0.471001,-2.850998c0.313995,-0.768005 0.723,-1.384003 1.223,-1.853996c0.501999,-0.468002 1.061996,-0.804008 1.679993,-1.008003c0.616005,-0.204002 1.233009,-0.306999 1.851006,-0.306999c0.660995,0 1.221001,0.044998 1.678001,0.133995c0.458,0.087006 0.835999,0.192009 1.132996,0.313004l-0.445999,1.917999c-0.252998,-0.121002 -0.554001,-0.209 -0.900993,-0.264992c-0.348007,-0.053001 -0.770004,-0.080002 -1.266006,-0.080002c-0.915001,0 -1.649002,0.324997 -2.205994,0.976997c-0.557999,0.651001 -0.836006,1.662994 -0.836006,3.030998c0,0.598 0.067001,1.141998 0.198997,1.631996c0.132004,0.492996 0.334,0.913002 0.603004,1.259995c0.270996,0.349007 0.605995,0.619003 1.008995,0.812004c0.402008,0.193001 0.868004,0.290001 1.396004,0.290001c0.497002,0 0.915001,-0.048996 1.257004,-0.147995c0.341995,-0.098999 0.639999,-0.227005 0.893997,-0.380005l0.462997,1.841003c-0.352997,0.249001 -0.803001,0.429993 -1.348,0.539001l0,0z" id="svg_5"/>
  <path fill="#333" d="m61,20l-26,0c-1.650002,0 -3,1.35 -3,3l0,14c0,1.650002 1.349998,3 3,3l26,0c1.650002,0 3,-1.349998 3,-3l0,-14c0,-1.65 -1.349998,-3 -3,-3zm-14.597,15.854c-0.544998,0.107998 -1.104,0.163998 -1.678001,0.163998c-0.693996,0 -1.353996,-0.106995 -1.975998,-0.322998c-0.623001,-0.214001 -1.172001,-0.562 -1.646,-1.040997s-0.852001,-1.103004 -1.132999,-1.868004c-0.280003,-0.765995 -0.419003,-1.695 -0.419003,-2.785997c0,-1.134001 0.157001,-2.085001 0.471001,-2.851c0.315002,-0.768002 0.723,-1.384001 1.224003,-1.854c0.501999,-0.468 1.061996,-0.804001 1.678997,-1.008001c0.616001,-0.204 1.233002,-0.306999 1.852001,-0.306999c0.66,0 1.220001,0.045 1.678001,0.133999c0.456997,0.087 0.834999,0.192001 1.132999,0.313005l-0.448002,1.919994c-0.254002,-0.120996 -0.555,-0.209 -0.902,-0.264996c-0.347,-0.055 -0.767998,-0.081999 -1.264999,-0.081999c-0.915001,0 -1.648998,0.324999 -2.206001,0.976994c-0.557999,0.651001 -0.835999,1.663 -0.835999,3.031c0,0.598001 0.067001,1.141998 0.199001,1.632c0.131996,0.493 0.333996,0.913002 0.602997,1.259998c0.271,0.349003 0.607002,0.618999 1.010002,0.811996c0.402,0.193005 0.867001,0.290005 1.396,0.290005c0.495998,0 0.915001,-0.049004 1.257,-0.148003c0.341999,-0.098999 0.639,-0.227001 0.892998,-0.380001l0.463001,1.841003c-0.354,0.249001 -0.802998,0.429993 -1.348999,0.538998l0,0l0,0.000004zm8.697998,0c-0.544998,0.107998 -1.105,0.163998 -1.677998,0.163998c-0.694,0 -1.354,-0.106995 -1.976002,-0.322998c-0.623001,-0.214001 -1.171997,-0.562 -1.645996,-1.040997s-0.852001,-1.103004 -1.133003,-1.868004c-0.280998,-0.766998 -0.420998,-1.695 -0.420998,-2.785997c0,-1.134001 0.156998,-2.085001 0.471001,-2.851c0.313995,-0.768002 0.723,-1.384001 1.223,-1.854c0.501999,-0.468 1.061996,-0.804001 1.679996,-1.008001c0.616001,-0.204 1.233002,-0.306999 1.851002,-0.306999c0.660999,0 1.221001,0.045 1.678001,0.133999c0.458,0.087 0.835999,0.192001 1.132999,0.313005l-0.446003,1.917995c-0.252998,-0.120996 -0.553997,-0.209 -0.900997,-0.264996c-0.348003,-0.053001 -0.77,-0.08 -1.266003,-0.08c-0.915001,0 -1.648998,0.324999 -2.205997,0.976994c-0.557999,0.651001 -0.836002,1.663 -0.836002,3.031c0,0.598001 0.067001,1.141998 0.199001,1.632c0.132,0.493 0.334,0.913002 0.603001,1.259998c0.271,0.349003 0.605999,0.618999 1.008999,0.811996c0.402,0.193005 0.868,0.290005 1.396,0.290005c0.497002,0 0.915001,-0.049004 1.257,-0.148003c0.341999,-0.098999 0.640003,-0.227001 0.894001,-0.380001l0.462997,1.841003c-0.352997,0.249001 -0.802998,0.429993 -1.348,0.538998l0,0l0,0.000004z" id="svg_6"/>
  <path opacity="0.3" fill="#333" d="m61,40l-26,0c-1.650002,0 -3,1.350002 -3,3l0,14c0,1.650002 1.349998,3 3,3l26,0c1.650002,0 3,-1.349998 3,-3l0,-14c0,-1.649998 -1.349998,-3 -3,-3zm-14.597,15.854c-0.544998,0.107998 -1.104004,0.163998 -1.678001,0.163998c-0.693993,0 -1.353996,-0.106995 -1.975998,-0.322998c-0.623001,-0.214001 -1.172001,-0.562 -1.646,-1.040997s-0.852001,-1.103004 -1.132999,-1.868004c-0.280003,-0.765995 -0.419003,-1.695 -0.419003,-2.785995c0,-1.134003 0.157001,-2.085003 0.471001,-2.851002c0.315002,-0.768002 0.723,-1.384003 1.224003,-1.854c0.501999,-0.467999 1.061996,-0.804001 1.678997,-1.007999c0.616001,-0.204002 1.233006,-0.306999 1.852001,-0.306999c0.659996,0 1.220001,0.044998 1.678001,0.133995c0.457001,0.087002 0.834999,0.192005 1.132996,0.313007l-0.447998,1.919994c-0.254005,-0.120998 -0.555,-0.209 -0.902,-0.264996c-0.347,-0.055 -0.767998,-0.081997 -1.264999,-0.081997c-0.915001,0 -1.648998,0.324997 -2.206001,0.976994c-0.557999,0.651001 -0.835999,1.663002 -0.835999,3.031002c0,0.598 0.067001,1.141998 0.199001,1.632c0.131996,0.492996 0.333996,0.912998 0.602997,1.259995c0.271,0.349003 0.607002,0.619003 1.010002,0.812c0.401997,0.193001 0.867001,0.290001 1.396,0.290001c0.495995,0 0.915001,-0.049 1.256996,-0.147999c0.342003,-0.098999 0.639008,-0.227001 0.893005,-0.380001l0.462997,1.841c-0.354004,0.249004 -0.802994,0.43 -1.348999,0.539001l0,0zm8.697998,0c-0.544998,0.107998 -1.105003,0.163998 -1.677994,0.163998c-0.694,0 -1.354004,-0.106995 -1.976006,-0.322998c-0.623001,-0.214001 -1.171997,-0.562 -1.645996,-1.040997s-0.851997,-1.103004 -1.133003,-1.868004c-0.280998,-0.766998 -0.420998,-1.695 -0.420998,-2.785995c0,-1.134003 0.156998,-2.085003 0.471001,-2.851002c0.313995,-0.768002 0.723,-1.384003 1.223,-1.854c0.501999,-0.467999 1.061996,-0.804001 1.679993,-1.007999c0.616005,-0.204002 1.233009,-0.306999 1.851006,-0.306999c0.660995,0 1.221001,0.044998 1.678001,0.133995c0.458,0.087002 0.835999,0.192005 1.132996,0.313007l-0.445999,1.917995c-0.252998,-0.120998 -0.554001,-0.209 -0.900993,-0.264996c-0.348007,-0.053001 -0.770004,-0.079998 -1.266006,-0.079998c-0.915001,0 -1.649002,0.324997 -2.205994,0.976994c-0.557999,0.651001 -0.836006,1.663002 -0.836006,3.031002c0,0.598 0.067001,1.141998 0.198997,1.632c0.132004,0.492996 0.334,0.912998 0.603004,1.259995c0.270996,0.349003 0.605995,0.619003 1.008995,0.812c0.402008,0.193001 0.868004,0.290001 1.396004,0.290001c0.497002,0 0.915001,-0.049 1.257004,-0.147999c0.341995,-0.098999 0.639999,-0.227001 0.893997,-0.380001l0.462997,1.841c-0.352997,0.249004 -0.803001,0.43 -1.348,0.539001l0,0z" id="svg_7"/>
 </g>
 <g>
  <title>fulscreen</title>
  <g id="svg_8" opacity="0.3">
   <polygon fill="#333" points="64 40 64 43 64 46 67 46 67 43 70 43 70 40 67 40" id="svg_9"/>
   <polygon fill="#333" points="67 54 64 54 64 57 64 60 67 60 70 60 70 57 67 57" id="svg_10"/>
   <polygon fill="#333" points="81 40 78 40 78 43 81 43 81 46 84 46 84 43 84 40" id="svg_11"/>
   <polygon fill="#333" points="81 57 78 57 78 60 81 60 84 60 84 57 84 54 81 54" id="svg_12"/>
  </g>
  <g id="svg_17">
   <polygon fill="#5c6870" points="64 0 64 3 64 6 67 6 67 3 70 3 70 0 67 0" id="svg_13"/>
   <polygon fill="#5c6870" points="67 14 64 14 64 17 64 20 67 20 70 20 70 17 67 17" id="svg_14"/>
   <polygon fill="#5c6870" points="81 0 78 0 78 3 81 3 81 6 84 6 84 3 84 0" id="svg_15"/>
   <polygon fill="#5c6870" points="81 17 78 17 78 20 81 20 84 20 84 17 84 14 81 14" id="svg_16"/>
  </g>
  <g id="svg_22">
   <polygon fill="#fff" points="64 60 64 63 64 66 67 66 67 63 70 63 70 60 67 60" id="svg_18"/>
   <polygon fill="#fff" points="67 74 64 74 64 77 64 80 67 80 70 80 70 77 67 77" id="svg_19"/>
   <polygon fill="#fff" points="81 60 78 60 78 63 81 63 81 66 84 66 84 63 84 60" id="svg_20"/>
   <polygon fill="#fff" points="81 77 78 77 78 80 81 80 84 80 84 77 84 74 81 74" id="svg_21"/>
  </g>
  <g id="svg_27">
   <polygon fill="#333" points="64 20 64 23 64 26 67 26 67 23 70 23 70 20 67 20" id="svg_23"/>
   <polygon fill="#333" points="67 34 64 34 64 37 64 40 67 40 70 40 70 37 67 37" id="svg_24"/>
   <polygon fill="#333" points="81 20 78 20 78 23 81 23 81 26 84 26 84 23 84 20" id="svg_25"/>
   <polygon fill="#333" points="81 37 78 37 78 40 81 40 84 40 84 37 84 34 81 34" id="svg_26"/>
  </g>
 </g>
</svg>