<svg width="138" height="96" xmlns="http://www.w3.org/2000/svg">
 <!-- Created with Method Draw - http://github.com/duopixel/Method-Draw/ -->

 <g>
  <title>background</title>
  <rect fill="none" id="canvas_background" height="98" width="140" y="-1" x="-1"/>
 </g>
 <g>
  <title>twitter</title>
  <path fill="white" fill-rule="evenodd" clip-rule="evenodd" d="m25.282997,65.152222c1.736004,-0.483994 3.074005,0.264 3.685005,1.150002c0.693996,-0.224998 1.371998,-0.470001 2.071999,-0.690002c-0.004002,0.841003 -0.538002,1.478004 -0.882999,1.728004c0.703999,0.164993 1.343,-0.481003 1.343,-0.481003c-0.174999,0.977005 -1.035002,1.746002 -1.611,1.977005c-0.239002,6.591995 -3.272003,10.955994 -10.382,10.822998c-0.537998,0 0.077,0 -0.459999,0c-0.422001,0 -4.290002,-0.450005 -5.047002,-1.843002c2.341001,0.192001 4.010999,-0.412003 4.835004,-1.150002c-0.989002,-0.292999 -2.761005,-0.463997 -3.070004,-2.881004c0.362,0.105003 0.582998,0.223007 1.228003,0.117004c-1.236002,-0.835999 -2.608004,-1.537003 -2.532001,-3.684998c0.294003,0.318993 1.099998,0.523003 1.381001,0.460999c-0.724998,-0.235001 -2.029999,-3.280998 -0.920998,-4.835999c1.872996,1.812004 3.848001,3.520996 7.368997,3.684998c0.216,-2.240005 1.171,-3.739998 2.993,-4.375l-0.000002,0l-0.000004,0z" id="svg_1" opacity="0.3"/>
  <path fill="white" fill-rule="evenodd" clip-rule="evenodd" d="m25.532999,16.821133c1.736002,-0.483999 3.074001,0.264 3.685001,1.15c0.693998,-0.224997 1.372,-0.469994 2.072001,-0.689999c-0.004002,0.841 -0.538,1.477999 -0.883001,1.727999c0.704,0.165001 1.343,-0.480999 1.343,-0.480999c-0.174999,0.976999 -1.035,1.745998 -1.611,1.976999c-0.239,6.592001 -3.272001,10.955999 -10.382,10.823c-0.538,0 0.077,0 -0.459999,0c-0.422001,0 -4.290001,-0.450001 -5.047001,-1.842999c2.341,0.191999 4.011,-0.412001 4.835001,-1.150002c-0.989,-0.292999 -2.761002,-0.464001 -3.070002,-2.881002c0.362001,0.105001 0.583,0.223001 1.228001,0.117002c-1.236,-0.836 -2.608,-1.536999 -2.532,-3.684999c0.294,0.319 1.099998,0.523001 1.380999,0.461c-0.724999,-0.235004 -2.029999,-3.281 -0.920999,-4.836c1.873,1.812 3.848001,3.520998 7.368999,3.684999c0.216,-2.24 1.171001,-3.74 2.993,-4.375z" id="svg_2"/>
 </g>
 <g>
  <title>facebook</title>
  <path fill="white" d="m71.275002,65.356003c0.799004,0 1.598999,0 2.398003,0c0,-1.119003 0,-2.237003 0,-3.356003c-0.959,0 -1.920006,0 -2.878006,0c-3.139,0.181 -4.254997,2.387001 -3.846992,6.113998l-1.948006,0l0,3.517998l1.959,0c0,3.104004 0,6.208008 0,9.312004c1.278999,0 2.558998,0 3.836998,0c0,-3.103996 0,-6.208 0,-9.312004l2.857002,0l0,-3.517998l-2.865997,0c-0.022003,-1.044998 -0.037003,-2.404999 0.487999,-2.757996z" id="svg_3" opacity="0.3"/>
  <path fill="white" d="m71.275002,17.355999c0.799004,0 1.598999,0 2.398003,0c0,-1.118999 0,-2.236999 0,-3.355999c-0.959,0 -1.920006,0 -2.878006,0c-3.139,0.181 -4.254997,2.387001 -3.846992,6.114l-1.948006,0l0,3.518l1.959,0c0,3.104 0,6.208 0,9.312c1.278999,0 2.558998,0 3.836998,0c0,-3.104 0,-6.208 0,-9.312l2.857002,0l0,-3.518l-2.865997,0c-0.022003,-1.045 -0.037003,-2.405001 0.487999,-2.758001z" id="svg_4"/>
 </g>
 <g>
  <title>youtube</title>
  <path opacity="0.3" id="svg_5" d="m122.144989,65l-14.30999,0c-1.559998,0 -2.834999,1.275002 -2.834999,2.835007l0,8.344994c0,1.559998 1.275002,2.834999 2.834999,2.834999l14.30999,0c1.560013,0 2.835007,-1.275002 2.835007,-2.834999l0,-8.344994c-0.000992,-1.560005 -1.275986,-2.835007 -2.835007,-2.835007zm-10.108994,10.391998l0,-6.768997l6.768997,3.384003l-6.768997,3.384995z" fill="white"/>
  <path id="svg_6" d="m122.144997,17l-14.309998,0c-1.559998,0 -2.834999,1.275 -2.834999,2.835001l0,8.344999c0,1.559999 1.275002,2.834999 2.834999,2.834999l14.309998,0c1.560005,0 2.834999,-1.275 2.834999,-2.834999l0,-8.344999c-0.000992,-1.560001 -1.275993,-2.835001 -2.834999,-2.835001zm-10.109001,10.392l0,-6.768999l6.769005,3.383999l-6.769005,3.385z" fill="white"/>
 </g>
</svg>